<?xml version="1.0" encoding="utf-8"?>
<!-- Generator: Adobe Illustrator 22.1.0, SVG Export Plug-In . SVG Version: 6.00 Build 0)  -->
<svg version="1.1" id="Layer_1" xmlns="http://www.w3.org/2000/svg" xmlns:xlink="http://www.w3.org/1999/xlink" x="0px" y="0px"
	 viewBox="0 0 1080 1080" style="enable-background:new 0 0 1080 1080;" xml:space="preserve">
<style type="text/css">
	.st0{fill:#5A6670;}
</style>
<g>
	<path class="st0" d="M987.2,1012.5c16.9,0,25.3,8.4,25.3,25.3v42.2h-945v-42.2c0-16.9,8.4-25.3,25.3-25.3H135V50.6
		c0-14,4.9-26,14.8-35.9C159.6,5,171.5,0,185.6,0h708.8c14,0,26,5,35.9,14.8C940,24.6,945,36.6,945,50.6v961.9H987.2z M337.5,160.3
		v84.4c0,16.9,8.4,25.3,25.3,25.3h84.4c16.9,0,25.3-8.4,25.3-25.3v-84.4c0-16.9-8.4-25.3-25.3-25.3h-84.4
		C345.9,135,337.5,143.4,337.5,160.3z M337.5,362.8v84.4c0,16.9,8.4,25.3,25.3,25.3h84.4c16.9,0,25.3-8.4,25.3-25.3v-84.4
		c0-16.9-8.4-25.3-25.3-25.3h-84.4C345.9,337.5,337.5,345.9,337.5,362.8z M447.2,675c16.9,0,25.3-8.4,25.3-25.3v-84.4
		c0-16.9-8.4-25.3-25.3-25.3h-84.4c-16.9,0-25.3,8.4-25.3,25.3v84.4c0,16.9,8.4,25.3,25.3,25.3H447.2z M607.5,1012.5V835.3
		c0-16.9-8.4-25.3-25.3-25.3h-84.4c-16.9,0-25.3,8.4-25.3,25.3v177.2H607.5z M742.5,244.7v-84.4c0-16.9-8.4-25.3-25.3-25.3h-84.4
		c-16.9,0-25.3,8.4-25.3,25.3v84.4c0,16.9,8.4,25.3,25.3,25.3h84.4C734.1,270,742.5,261.6,742.5,244.7z M742.5,447.2v-84.4
		c0-16.9-8.4-25.3-25.3-25.3h-84.4c-16.9,0-25.3,8.4-25.3,25.3v84.4c0,16.9,8.4,25.3,25.3,25.3h84.4
		C734.1,472.5,742.5,464.1,742.5,447.2z M742.5,649.7v-84.4c0-16.9-8.4-25.3-25.3-25.3h-84.4c-16.9,0-25.3,8.4-25.3,25.3v84.4
		c0,16.9,8.4,25.3,25.3,25.3h84.4C734.1,675,742.5,666.6,742.5,649.7z"/>
</g>
</svg>
