<?xml version="1.0" encoding="utf-8"?>
<!-- Generator: Adobe Illustrator 22.1.0, SVG Export Plug-In . SVG Version: 6.00 Build 0)  -->
<svg version="1.1" id="Layer_1" xmlns="http://www.w3.org/2000/svg" xmlns:xlink="http://www.w3.org/1999/xlink" x="0px" y="0px"
	 viewBox="0 0 1080 1080" style="enable-background:new 0 0 1080 1080;" xml:space="preserve">
<style type="text/css">
	.st0{fill:#5A6670;}
</style>
<g>
	<path class="st0" d="M1054.4,402.5c8.4,0,15,3.1,19.9,9.4c4.9,6.3,6.6,13.6,5.2,22l-12.6,50.3c-4.2,12.6-12.6,18.9-25.1,18.9h-41.9
		c30.7,26.6,46.1,60.1,46.1,100.6v100.6c0,33.5-11.2,62.9-33.5,88v113.2c0,18.2-6.7,33.9-19.9,47.2c-13.3,13.3-29,19.9-47.2,19.9
		h-67.1c-18.2,0-33.9-6.6-47.2-19.9c-13.3-13.3-19.9-29-19.9-47.2v-67.1H274.8v67.1c0,18.2-6.7,33.9-19.9,47.2
		c-13.3,13.3-29,19.9-47.2,19.9h-67.1c-18.2,0-33.9-6.6-47.2-19.9c-13.3-13.3-19.9-29-19.9-47.2V792.3c-22.4-25.1-33.5-54.5-33.5-88
		V603.7c0-40.5,15.4-74,46.1-100.6H44.2c-12.6,0-21-6.3-25.1-18.9L6.5,433.9c-1.4-8.4,0.3-15.7,5.2-22c4.9-6.3,11.5-9.4,19.9-9.4
		h125.7l35.6-88c8.4-21,19.9-40.9,34.6-59.7s31.4-34.6,50.3-47.2c18.9-12.6,39.5-22.3,61.8-29.3c22.3-7,45.4-10.5,69.2-10.5h268.3
		c47.5,0,91.2,13.3,131,39.8c39.8,26.6,68.1,62.2,84.9,106.9l35.6,88H1054.4z M207.7,704.3c2.8,0,8.7,0,17.8,0c9.1,0,15.7,0,19.9,0
		s10.1-0.3,17.8-1c7.6-0.7,13.6-1.7,17.8-3.1c4.2-1.4,8.7-3.1,13.6-5.2c4.9-2.1,8.4-5.2,10.5-9.4s3.1-9.1,3.1-14.7
		c0-21-11.9-43-35.6-66c-23.8-23.1-45.4-34.6-65-34.6c-19.6,0-35.6,6.3-48.2,18.9s-18.9,28.7-18.9,48.2c0,19.6,6.3,35.6,18.9,48.2
		S188.1,704.3,207.7,704.3z M316.7,364.8l-41.9,104.8h536.5l-41.9-104.8c-7-18.1-19.2-33.2-36.7-45.1c-17.5-11.8-36-17.8-55.5-17.8
		H408.9c-19.6,0-38.1,6-55.5,17.8C335.9,331.6,323.7,346.7,316.7,364.8z M878.4,704.3c19.5,0,35.6-6.3,48.2-18.9
		s18.9-28.6,18.9-48.2c0-19.5-6.3-35.6-18.9-48.2s-28.7-18.9-48.2-18.9c-12.6,0-26.9,5.6-43,16.8c-16.1,11.2-29.7,24.8-40.9,40.9
		c-11.2,16.1-16.8,30.4-16.8,43c0,5.6,1,10.5,3.1,14.7s5.6,7.3,10.5,9.4c4.9,2.1,9.4,3.9,13.6,5.2c4.2,1.4,10.1,2.5,17.8,3.1
		c7.6,0.7,13.6,1,17.8,1s10.8,0,19.9,0C869.6,704.3,875.5,704.3,878.4,704.3z"/>
</g>
</svg>
