<?xml version="1.0" encoding="utf-8"?>
<!-- Generator: Adobe Illustrator 22.1.0, SVG Export Plug-In . SVG Version: 6.00 Build 0)  -->
<svg version="1.1" id="Layer_1" xmlns="http://www.w3.org/2000/svg" xmlns:xlink="http://www.w3.org/1999/xlink" x="0px" y="0px"
	 viewBox="0 0 1080 1080" style="enable-background:new 0 0 1080 1080;" xml:space="preserve">
<style type="text/css">
	.st0{fill:#5A6670;}
</style>
<g>
	<path class="st0" d="M168.8,371.1c0-99.8,35.1-186.6,105.4-260.4C344.5,36.9,432.4,0,537.8,0c104,0,192.2,36.2,264.6,108.6
		c72.4,72.4,108.6,159.9,108.6,262.5c0,92.8-30.9,174.3-92.8,244.6c-52,60.5-88.5,124.4-109.6,191.9v2.1H371.2v-2.1
		c-21.1-67.5-57.7-131.4-109.6-191.9C199.7,545.4,168.8,463.8,168.8,371.1z M539.9,202.4c9.8,0,17.9-3.2,24.2-9.5
		c6.3-6.3,9.5-14.4,9.5-24.2c0-9.8-3.2-17.9-9.5-24.2c-6.3-6.3-14.4-9.5-24.2-9.5c-64.7,0-120.2,23.2-166.6,69.6
		c-46.4,46.4-69.6,101.9-69.6,166.6c0,9.9,3.2,17.9,9.5,24.2c6.3,6.3,14.4,9.5,24.2,9.5c9.8,0,17.9-3.2,24.2-9.5
		c6.3-6.3,9.5-14.4,9.5-24.2c0-46.4,16.5-86.1,49.5-119.1C453.8,218.9,493.5,202.4,539.9,202.4z M371.2,957.2V877h337.3v80.1
		c0,14-3.5,26.7-10.5,37.9l-35.8,54.8c-14.1,19.7-33,29.5-56.9,29.5H474.5c-23.9,0-42.2-9.9-54.8-29.5l-37.9-54.8
		C374.7,983.8,371.2,971.2,371.2,957.2z"/>
</g>
</svg>
