<?xml version="1.0" encoding="utf-8"?>
<!-- Generator: Adobe Illustrator 22.1.0, SVG Export Plug-In . SVG Version: 6.00 Build 0)  -->
<svg version="1.1" id="Layer_1" xmlns="http://www.w3.org/2000/svg" xmlns:xlink="http://www.w3.org/1999/xlink" x="0px" y="0px"
	 viewBox="0 0 1080 1080" style="enable-background:new 0 0 1080 1080;" xml:space="preserve">
<style type="text/css">
	.st0{fill:#5A6670;}
</style>
<g>
	<path class="st0" d="M593.6,726c0,44.7,15.6,82.7,46.9,114l97.2,97.2c-16.8,21.2-38,31.8-63.7,31.8H84.2c-22.4,0-41.3-7.8-57-23.5
		c-15.7-15.7-23.5-34.6-23.5-57v-70.4c0-61.4,22-114.2,66.2-158.4c44.1-44.1,96.9-66.2,158.4-66.2h28.5
		c39.1,17.9,79.9,26.8,122.3,26.8c42.4,0,83.2-8.9,122.3-26.8h28.5c19,0,40.2,3.4,63.7,10.1V726z M379.1,540
		c-39.1,0-75.2-9.5-108.1-28.5c-33-19-58.9-45-77.9-77.9c-19-32.9-28.5-69-28.5-108.1c0-59.2,20.9-109.8,62.8-151.7
		S319.9,111,379.1,111c39.1,0,75.1,9.5,108.1,28.5c32.9,19,58.9,45,77.9,77.9c19,33,28.5,69,28.5,108.1
		c0,59.2-20.9,109.8-62.8,151.7S438.3,540,379.1,540z M1061.2,722.7c10.1,10.1,15.1,22.6,15.1,37.7s-5.6,27.7-16.8,37.7L905.3,953.9
		C895.3,964,882.7,969,867.6,969s-27.7-5-37.7-15.1L677.4,801.4c-20.1-20.1-30.2-45.2-30.2-75.4V593.6c0-14.5,5-27.1,15.1-37.7
		c10.1-10.6,22.9-15.9,38.5-15.9h132.4c30.2,0,55.3,10.6,75.4,31.8L1061.2,722.7z M754.5,687.5c6.7,0,13.1-1.9,19.3-5.9
		c6.1-3.9,11.1-8.9,15.1-15.1c3.9-6.1,5.9-12.8,5.9-20.1c0-7.2-2-14-5.9-20.1c-3.9-6.1-9-10.9-15.1-14.2c-6.2-3.4-12.6-5-19.3-5
		c-11.2,0-20.7,3.9-28.5,11.7c-7.8,7.8-11.7,17.3-11.7,28.5c0,11.2,3.9,20.7,11.7,28.5C733.8,683.6,743.3,687.5,754.5,687.5z"/>
</g>
</svg>
