<?xml version="1.0" encoding="utf-8"?>
<!-- Generator: Adobe Illustrator 22.1.0, SVG Export Plug-In . SVG Version: 6.00 Build 0)  -->
<svg version="1.1" id="Layer_1" xmlns="http://www.w3.org/2000/svg" xmlns:xlink="http://www.w3.org/1999/xlink" x="0px" y="0px"
	 viewBox="0 0 1080 1080" style="enable-background:new 0 0 1080 1080;" xml:space="preserve">
<style type="text/css">
	.st0{fill:#5A6670;}
</style>
<g>
	<path class="st0" d="M291.9,572.1c-33.8,18-61.9,43.3-84.4,75.9c-22.5,32.7-36.6,68.6-42.2,108H54c-14.6,0-27.3-5.3-38-16
		C5.3,729.3,0,716.6,0,702v-54c0-29.2,10.7-54.5,32.1-75.9C53.4,550.7,78.7,540,108,540h108C245.2,540,270.5,550.7,291.9,572.1z
		 M237.9,453.9C216.5,475.3,191.2,486,162,486c-29.3,0-54.6-10.7-75.9-32.1C64.7,432.6,54,407.3,54,378c0-29.2,10.7-54.5,32.1-75.9
		c21.3-21.3,46.7-32.1,75.9-32.1c29.2,0,54.5,10.7,75.9,32.1c21.3,21.4,32.1,46.7,32.1,75.9C270,407.3,259.3,432.6,237.9,453.9z
		 M669.9,594c54,0,99.8,18.9,137.5,56.5c37.7,37.7,56.5,83.5,56.5,137.5V837c0,22.5-7.9,41.6-23.6,57.4
		C824.6,910.1,805.5,918,783,918H297c-22.5,0-41.6-7.9-57.4-23.6C223.8,878.6,216,859.5,216,837v-48.9c0-54,18.8-99.8,56.5-137.5
		c37.7-37.7,83.5-56.5,137.5-56.5h15.2c37.1,18,75.3,27,114.8,27c39.4,0,77.6-9,114.8-27H669.9z M673.3,484.3
		C636.2,521.4,591.7,540,540,540c-51.8,0-96.2-18.6-133.3-55.7S351,402.8,351,351c0-51.7,18.6-96.2,55.7-133.3S488.2,162,540,162
		c51.7,0,96.2,18.6,133.3,55.7S729,299.3,729,351C729,402.8,710.4,447.2,673.3,484.3z M972,540c29.2,0,54.5,10.7,75.9,32.1
		c21.3,21.4,32.1,46.7,32.1,75.9v54c0,14.6-5.4,27.3-16,38c-10.7,10.7-23.4,16-38,16H914.6c-3.4-25.9-10.7-50.6-21.9-74.3
		c-11.3-23.6-25.9-44.7-43.9-63.3c-18-18.6-38.3-34-60.8-46.4c21.3-21.3,46.7-32.1,75.9-32.1H972z M993.9,453.9
		C972.5,475.3,947.2,486,918,486c-29.3,0-54.6-10.7-75.9-32.1C820.7,432.6,810,407.3,810,378c0-29.2,10.7-54.5,32.1-75.9
		c21.3-21.3,46.7-32.1,75.9-32.1c29.2,0,54.5,10.7,75.9,32.1c21.3,21.4,32.1,46.7,32.1,75.9C1026,407.3,1015.3,432.6,993.9,453.9z"
		/>
</g>
</svg>
